<?xml version="1.0" standalone="no"?>
<!DOCTYPE svg PUBLIC "-//W3C//DTD SVG 20010904//EN"
 "http://www.w3.org/TR/2001/REC-SVG-20010904/DTD/svg10.dtd">
<svg version="1.0" xmlns="http://www.w3.org/2000/svg"
 width="310.000000pt" height="284.000000pt" viewBox="0 0 310.000000 284.000000"
 preserveAspectRatio="xMidYMid meet">

<g transform="translate(0.000000,284.000000) scale(0.100000,-0.100000)"
fill="#000000" stroke="none">
<path d="M1482 2410 c-7 -12 -17 -18 -22 -15 -6 3 -10 -1 -10 -9 0 -11 8 -13
27 -10 33 6 30 4 35 28 4 27 -15 30 -30 6z"/>
<path d="M1960 2421 c0 -5 7 -17 16 -26 14 -13 19 -14 25 -3 13 20 11 28 -6
22 -8 -4 -15 -1 -15 5 0 6 -4 11 -10 11 -5 0 -10 -4 -10 -9z"/>
<path d="M2070 2330 c-28 -97 -40 -129 -70 -180 -33 -55 -51 -79 -167 -216
-110 -130 -181 -258 -183 -326 -1 -66 61 -158 150 -223 65 -48 74 -46 68 15
-7 66 6 143 32 192 24 47 16 65 -32 70 -36 3 -44 16 -26 40 11 14 41 18 195
22 100 2 187 7 192 11 14 8 8 205 -7 232 -17 30 -15 37 14 72 33 39 24 52 -62
93 -70 33 -73 40 -75 138 0 36 -4 74 -8 85 -7 17 -10 13 -21 -25z"/>
<path d="M1066 2289 c-14 -11 -39 -39 -55 -62 -108 -158 -116 -255 -29 -389
41 -63 60 -66 39 -6 -22 62 -6 238 21 238 4 0 8 -1 8 -2 1 -42 23 -179 32
-206 21 -59 31 -56 51 11 47 155 42 330 -11 415 -18 27 -23 27 -56 1z"/>
<path d="M1350 2279 c0 -11 5 -17 10 -14 6 3 10 13 10 21 0 8 -4 14 -10 14 -5
0 -10 -9 -10 -21z"/>
<path d="M1340 2239 c0 -5 5 -7 10 -4 6 3 10 8 10 11 0 2 -4 4 -10 4 -5 0 -10
-5 -10 -11z"/>
<path d="M630 1762 c0 -4 9 -13 19 -19 11 -7 42 -45 69 -85 26 -40 67 -101 90
-134 91 -136 195 -179 366 -154 101 15 115 22 100 47 -21 35 -115 79 -261 123
-84 25 -109 46 -68 56 30 7 163 -14 171 -28 3 -4 15 -8 26 -8 12 0 45 -14 75
-30 29 -17 53 -28 53 -25 0 13 -71 76 -125 113 -117 78 -207 110 -387 137
-112 17 -128 18 -128 7z"/>
<path d="M274 1486 c-9 -23 15 -93 43 -127 28 -33 94 -68 128 -69 16 0 13 6
-18 36 -21 20 -36 38 -34 40 2 2 20 -1 41 -7 20 -6 44 -9 53 -7 26 5 -67 91
-132 121 -64 31 -74 32 -81 13z"/>
<path d="M591 1474 c-49 -63 -1 -165 77 -164 14 0 12 4 -7 19 -17 13 -24 29
-25 57 l-1 39 45 0 c41 0 45 2 48 26 3 22 -2 29 -29 38 -53 18 -85 14 -108
-15z"/>
<path d="M1062 1319 c-66 -8 -115 -15 -172 -25 -56 -10 -222 -74 -255 -99 -16
-12 -45 -30 -64 -39 -43 -22 -97 -76 -141 -141 -33 -47 -35 -55 -35 -131 0
-73 16 -134 34 -134 3 0 6 37 6 83 0 96 24 159 83 220 111 116 327 200 547
213 l100 6 -70 -38 c-78 -41 -147 -86 -173 -113 -41 -42 -133 -110 -166 -122
-43 -16 -45 -31 -8 -57 52 -36 95 -47 182 -46 98 1 164 25 238 87 24 21 47 37
50 37 4 0 32 24 62 53 31 28 67 60 80 70 l25 18 -52 -5 c-29 -3 -83 -20 -126
-40 -41 -20 -82 -36 -91 -36 -27 0 -18 28 23 68 44 42 98 60 214 71 54 4 72
10 72 21 0 10 13 17 40 20 l40 5 -30 12 c-92 37 -289 57 -413 42z"/>
<path d="M1820 1269 c0 -7 -12 -8 -30 -4 -25 5 -30 4 -29 -12 0 -10 3 -13 6
-5 2 6 9 9 14 6 6 -4 6 -11 -1 -19 -14 -16 0 -26 27 -19 27 7 48 50 27 58 -8
3 -14 1 -14 -5z"/>
<path d="M1973 1249 c-7 -7 -13 -18 -13 -25 0 -7 -5 -14 -12 -16 -8 -3 -5 -12
9 -28 l22 -23 6 25 c4 14 5 38 3 52 -2 22 -5 25 -15 15z"/>
<path d="M2863 1189 c3 -8 11 -33 18 -57 16 -58 39 -69 73 -35 35 34 33 47 -9
72 -49 28 -90 38 -82 20z"/>
<path d="M783 1164 c-13 -14 -23 -38 -23 -54 l0 -28 29 26 c16 15 39 34 51 43
14 9 20 20 16 27 -12 20 -50 13 -73 -14z"/>
<path d="M480 1173 c-8 -4 -30 -17 -47 -31 -31 -23 -33 -23 -33 -5 0 32 -11
34 -33 7 -21 -27 -35 -108 -20 -117 9 -6 153 130 153 145 0 4 -1 8 -2 7 -2 0
-10 -3 -18 -6z"/>
<path d="M1476 1118 c-60 -34 -101 -121 -94 -197 5 -45 38 -111 57 -111 5 0 9
20 9 45 1 51 19 90 65 143 59 68 60 68 46 94 -21 39 -47 48 -83 26z"/>
<path d="M2602 1080 c0 -14 2 -19 5 -12 2 6 2 18 0 25 -3 6 -5 1 -5 -13z"/>
<path d="M1672 1041 c-65 -22 -131 -76 -132 -107 0 -15 69 -34 126 -34 49 0
177 34 203 54 11 9 9 12 -10 17 -13 4 -42 8 -64 8 -41 1 -74 14 -59 24 14 8
70 18 104 19 50 2 44 15 -10 27 -69 15 -96 13 -158 -8z"/>
<path d="M2880 1022 c0 -9 -18 -33 -40 -52 -22 -19 -40 -41 -40 -48 0 -8 -9
-25 -20 -40 -17 -21 -19 -28 -7 -39 17 -17 78 -27 95 -15 7 5 19 37 28 73 8
35 19 72 25 81 13 26 11 45 -7 52 -26 10 -34 7 -34 -12z"/>
<path d="M2114 869 c-9 -15 5 -26 48 -33 47 -8 58 8 19 29 -35 18 -57 19 -67
4z"/>
<path d="M282 858 c-7 -7 -12 -20 -12 -30 0 -17 1 -17 25 -2 27 17 34 44 12
44 -7 0 -18 -5 -25 -12z"/>
<path d="M323 778 c-31 -39 -16 -111 28 -142 34 -23 39 -20 27 15 -6 17 -8 50
-5 73 8 56 -23 88 -50 54z"/>
<path d="M875 696 c-16 -38 -12 -61 12 -71 25 -9 35 8 31 55 -4 55 -24 62 -43
16z"/>
<path d="M1678 679 c-5 -16 -15 -29 -21 -29 -7 0 -5 -5 3 -10 8 -5 25 -7 37
-3 14 3 23 1 23 -6 0 -6 5 -11 10 -11 6 0 10 17 10 39 0 34 -3 39 -26 44 -22
4 -28 0 -36 -24z"/>
<path d="M618 683 c-5 -25 3 -63 13 -63 5 0 9 18 9 40 0 40 -15 56 -22 23z"/>
<path d="M658 682 c-3 -9 -1 -26 3 -37 5 -14 8 -15 9 -5 1 8 3 25 6 38 5 26
-12 30 -18 4z"/>
<path d="M695 690 c4 -6 11 -8 16 -5 14 9 11 15 -7 15 -8 0 -12 -5 -9 -10z"/>
<path d="M766 684 c-11 -29 -6 -43 16 -46 14 -2 25 -13 29 -28 6 -20 7 -17 8
17 1 23 4 48 7 57 4 10 1 16 -9 16 -10 0 -13 -8 -9 -25 3 -18 0 -25 -12 -25
-12 0 -15 6 -10 25 7 27 -10 35 -20 9z"/>
<path d="M960 684 c0 -17 22 -14 28 4 2 7 -3 12 -12 12 -9 0 -16 -7 -16 -16z"/>
<path d="M1157 694 c-3 -4 -2 -15 4 -26 6 -11 8 -26 5 -34 -3 -8 -1 -14 4 -14
6 0 10 5 10 10 0 6 8 10 18 8 13 -2 18 5 20 30 2 18 -1 32 -7 32 -6 0 -11 -7
-11 -15 0 -8 -4 -15 -10 -15 -5 0 -10 7 -10 15 0 15 -12 20 -23 9z"/>
<path d="M1272 688 c0 -7 -4 -23 -7 -35 -6 -18 -3 -23 9 -23 9 0 19 6 22 14 3
8 12 12 20 9 10 -4 14 3 14 21 0 22 -4 26 -28 26 -16 0 -29 -6 -30 -12z"/>
<path d="M1390 678 c-11 -12 -20 -31 -19 -42 0 -20 1 -20 9 2 11 26 35 29 48
6 7 -13 10 -9 14 20 3 29 1 36 -14 36 -9 0 -26 -10 -38 -22z"/>
<path d="M1460 690 c0 -5 5 -10 10 -10 6 0 10 5 10 10 0 6 -4 10 -10 10 -5 0
-10 -4 -10 -10z"/>
<path d="M1530 678 c-25 -27 -25 -38 -2 -38 20 0 62 35 62 50 0 18 -39 10 -60
-12z"/>
<path d="M1610 689 c0 -5 5 -7 10 -4 6 3 10 8 10 11 0 2 -4 4 -10 4 -5 0 -10
-5 -10 -11z"/>
<path d="M965 630 c-3 -5 1 -10 9 -10 9 0 16 5 16 10 0 6 -4 10 -9 10 -6 0
-13 -4 -16 -10z"/>
<path d="M0 10 c0 -7 523 -10 1550 -10 1027 0 1550 3 1550 10 0 7 -523 10
-1550 10 -1027 0 -1550 -3 -1550 -10z"/>
</g>
</svg>
